<?xml version="1.0" encoding="UTF-8"?>
<svg id="Layer_1" xmlns="http://www.w3.org/2000/svg" version="1.1" viewBox="0 0 1382 1463">
  <!-- Generator: Adobe Illustrator 29.5.1, SVG Export Plug-In . SVG Version: 2.1.0 Build 141)  -->
  <path d="M907.6,74.4c-90.5,13.9-184,28.6-268.8,63.8-52,21.6-116.1,62.5-96.5,128.6,22,74.2,132.3,158.5,192.5,206,99.6,78.7,203.2,151.3,300,233.9,141,120.3,315.3,300.7,167.1,488.5-128.1,162.3-364.5,243.1-567.4,226.5-41.3-3.4-112-13.5-150.1-28.2-3-1.1-6.6-3.1-8.2-5.9,67.9-9.7,135.9-20.9,201.6-40.4,78.2-23.2,207.7-71.3,150.5-176.8-29.6-54.7-84.2-101.1-131.6-140.2-108.6-89.8-225.4-169.2-333.1-260.1C218.2,647.3,21.2,457,183.8,262,349.3,63.6,651.4-7.2,894.7,69.3c4,1.3,9.8,2.5,12.9,5.1Z"/>
  <path d="M326,1018.4l-12.2-124.7,281,267.9-232.3,177.3c-4-10.3-6.7-76.2-11.2-80.3-6-5.5-31.3-7-40.1-8.6-148.4-27.4-251.4-195.8-287.9-330.7C4.7,850.4-2.3,778,.6,706.7l25.2,51.3c65.1,119.6,177.1,206.1,300.2,260.4Z"/>
  <path d="M1381,757.3c-2.2.4-1.6-.1-2.2-1.2-3.9-7.2-7-16.8-10.6-24.4-16.5-34.3-36.7-67.8-59.9-97.9-65.4-85.1-156.5-147.2-253.7-191l11.2,123.7-276.7-266.9,229.5-174.4,10.7,82.4c167.3,12.4,276.4,169.8,321.8,317.2,23,74.7,34.6,154.4,29.9,232.6Z"/>
</svg>