<?xml version="1.0" encoding="UTF-8"?>
<svg id="Layer_1" fill="white" xmlns="http://www.w3.org/2000/svg" version="1.1" viewBox="430 0 2205 463.9">
  <!-- Generator: Adobe Illustrator 29.5.1, SVG Export Plug-In . SVG Version: 2.1.0 Build 141)  -->
  <!-- <path d="M314.8,69.2c.1.7-.9.7-1.3.8-22.7,4.8-75.1,10-87.1,32.5-8.5,16,11.4,35.6,22.3,45.6,22,20.2,47.9,37.4,71.4,55.9,37.6,29.5,107.8,82.7,71.4,136.8-27,40.1-87.1,63.1-134.4,61.5-12.5-.4-34.8-3.1-46.4-7.6-.8-.3-1.7-.6-2-1.6,16.9-2.2,33.8-5,50.1-10,14.7-4.4,41.9-13.7,40.3-33-1.4-17.4-29.5-39.8-42.5-50.3-25.1-20.2-51.7-38.4-76.3-59.3-46.3-39.2-89-86.7-29.4-139.1,43.7-38.4,108.6-50.3,163.9-32.3Z"/> -->
  <polygon points="779.7 137.7 824.6 292.6 826.4 292.3 868.7 137.7 921.7 137.9 963.4 293.8 964.7 294.1 1010.6 137.7 1060.2 137.7 999.2 338.8 935 339.3 893.2 198.4 891.7 198.9 852.4 338.8 788.5 339.2 727.6 137.7 779.7 137.7"/>
  <path d="M2105.7,173.6c.9,0,1.5.1,2.2-.5.7-.6,3.2-5.5,4.2-7,28.1-38.8,94.9-41.2,132.3-15.3,56.6,39.1,54.6,144.2-6.5,178.4-37.2,20.8-101.8,17.9-128-19.3-1.6-2.3-2.6-6.4-5.7-5.7l-1.9,35h-50.6V62.9h53.2l.7.7v110ZM2165,175.2c-23.2,1.2-45.9,12.5-55.1,34.8-4.8,11.7-5.1,28-4.2,40.6,4.4,60.5,105.5,70.9,122.3,9.4,12.6-46.2-13-87.5-63.1-84.9Z"/>
  <path d="M1229.5,303.3v99.1h-54V137.7h51.1l1.9,34.5c1.7,1.7,5.5-5.7,6.4-7,27.5-36.7,92.7-39.2,129.7-16.6,60.4,36.9,59.5,143.9-1.3,180.3-37.3,22.4-99.9,18.6-127-18.2-.9-1.3-3.8-6.6-4.2-7-.8-.7-1.7-.5-2.7-.5ZM1287.2,175.7c-30.2,2-55.8,20.8-57.8,52.5-2.1,33.2,7.8,60.9,42.3,70.4,39.7,11,77.8-7.9,82.6-50.6,5-44.7-21.4-75.4-67.1-72.4Z"/>
  <path d="M1663.7,249.4h-178c.3,28.2,18.1,47.8,45.1,53.8,26.7,5.9,69.7,1.4,81.5-27.5h50.3c-4.9,36-40.6,55.6-73,62.8-62.6,13.8-142.1-4.7-155.9-76.3-8.6-45.1,7.3-90.6,48.6-112.9,39.7-21.4,103.8-21.4,141.5,4.5,31.4,21.6,42.7,58.7,39.7,95.6ZM1610.7,218.8c-1.4-16.9-9.7-31.5-24.8-39.6s-49.3-10.1-68.9-1.8c-17.4,7.4-29.1,22.5-31.8,41.4h125.5Z"/>
  <path d="M1892.7,133.9c73.1-3.4,131.3,34.9,127,113.3-4.3,79.2-85.2,106-153.3,92.4-58.3-11.7-91.9-56.9-84.5-116.6,7.3-58.6,55.5-86.5,110.7-89ZM1894.1,175.7c-38.7,2.6-60.9,29.2-58.8,67.6,1.7,30.9,21.6,52.9,52.4,57,49.9,6.5,84.9-23.5,77.4-74.8-5.3-36.5-36.5-52.1-71-49.8Z"/>
  <path d="M2507.4,197.9h-51.1c-1.5-14.7-11.7-24.3-25.4-28.3-17.7-5.2-65.5-5.1-68.4,19.9-2.4,20,17,23.4,32.4,25.9,30.1,4.8,85.3,4.1,106.9,27.8,11.6,12.6,13.9,34.4,10.2,50.5-11.8,51.2-97.4,53.5-138,46.5-35.2-6.1-68.8-25-70.9-64.4h53c.5,19.9,18.2,29.6,35.8,32.5,17.4,2.9,65,3.6,68.2-20.6,3.2-24.1-16.6-27.2-35.3-29.8-42.1-5.9-118.9-2.9-114.9-64.4,4-61.3,99.8-66.6,143.9-53.9s51.4,27.4,53.5,58.5Z"/>
  <path d="M715,197.9h-50.8l-.6-.8c-3.7-30.8-42.3-33.1-66.3-28.7-15.5,2.8-29.6,10.6-27,28.6,1.9,13.4,21.4,16.5,32.3,18.3,30.7,4.9,91.2,4,110.3,32.2,9.8,14.4,10.7,39,3.8,54.7-17.4,39.3-82.6,43-119.5,40-39.3-3.2-84.5-20.9-86.3-66.5h52.5c1.6,20.1,18.1,29.5,36.3,32.5,18,3,65.4,3.6,68.2-21.6,2.4-21.9-14.5-25.6-31.9-28.3-31.4-4.9-94-4-112.1-34.7-8.2-13.9-8.3-35.2-1.3-49.6,20.9-43.2,100.7-46,140.5-34.1,27.9,8.4,49.6,27.6,52,58Z"/>
  <path d="M1749.8,137.7v207.2c-1.9,37.7-21.8,55.7-59.1,57.5-9.3.5-26.1,1.1-35,0-.7,0-1.3,0-1.7-.8v-40.1h21.6c4.3,0,11.7-3.5,14.6-6.8,2.8-3.3,5.6-11.5,5.6-15.8v-201.3h54Z"/>
  <polygon points="1135.6 137.7 1135.6 338.5 1134.9 339.2 1082.4 339.2 1081.6 338.5 1081.6 137.7 1135.6 137.7"/>
  <!-- <path d="M171.8,302.3l-2.7-30.6,68.6,66.5-56.4,42.7c-1,.4-1-1.6-1.1-2.3-.8-5-.8-10.4-1.6-15.4-.6-3.9-7.3-3.1-10.3-3.8-43.5-9.6-69.3-59.6-75.2-100.2-1.6-10.8-2.2-22.4-1.5-33.2l5.7,11.5c16.2,29.8,43.7,51.3,74.5,64.8Z"/> -->
  <!-- <path d="M432,238.2l-7.4-14.7c-16.3-29.1-43.1-49.8-73.3-63l2.7,30.1-68.3-65.6,56.9-42.7,2.9,20.2c44.8,3.8,72.1,47.9,81.9,87.7,3.8,15.6,5.7,32,4.7,48Z"/> -->
  <polygon fill = "green" points="1135.6 109.5 1081.6 109.5 1081.6 62.9 1134.9 62.9 1135.6 63.6 1135.6 109.5"/>
  <polygon fill = "red" points="1749.8 109.5 1695.8 109.5 1695.8 63.6 1696.5 62.9 1749.1 62.9 1749.8 63.6 1749.8 109.5"/>
</svg>